# xmcd CD database file
#
# Track frame offsets:
#	150
#	12427
#	33169
#	46512
#	56226
#	65486
#	82804
#	101135
#	112908
#	123813
#	139479
#	153921
#
# Disc length: 2191 seconds
#
# Revision: 0
# Processed by: cddbd v1.5PL3 Copyright (c) Steve Scherf et al.
# Submitted via: CDex 1.50
#
DISCID=93088d0c
DTITLE=Shel Silverstein - A Boy Named Sue
DYEAR=1969
DGENRE=Country
TTITLE0=Alimoney
TTITLE1=Dirty Ol' Me
TTITLE2=Cloudy Sky
TTITLE3=Kick It Again
TTITLE4=Somedat's Here
TTITLE5=Time
TTITLE6=Boy Named Sue
TTITLE7=Pathetic Way Of Getting Over Me
TTITLE8=Somebody Stole My Rig
TTITLE9=Comin' After Jenny
TTITLE10=Daylight Dreamer
TTITLE11=Bigtime
EXTD=YEAR: 1969
EXTT0=
EXTT1=
EXTT2=
EXTT3=
EXTT4=
EXTT5=
EXTT6=
EXTT7=
EXTT8=
EXTT9=
EXTT10=
EXTT11=
PLAYORDER=
